:SAMPLES-PER-SECOND 30
:FULLY-SPECIFIED
:DEGREES
375
root  -6.9442 34.5256 -22.8551 -172.837 70.0711 -179.185
RightUpLeg  -10.929 -33.0262 -9.32993
RightLeg  12.9874 -1.05515 -0.172271
RightFoot  15.8899 0.0928345 -0.124015
RightToes  -36.7298 -0.191909 -0.28997
Spine  -0.670938 3.89246 -1.98696
Spine1  -1.38591 7.86549 -3.21289
HEad  -33.0832 -26.5164 5.47709
LeftShoulder1  -1.94126e-019 -3.10601e-018 -2.51263e-017
LeftArm  -20.1187 28.2347 -75.9731
LeftForeArm  31.9015 -9.99689 -1.7504
LeftHand  -0.396594 -0.466735 7.96218
RightShoulder  -4.96962e-017 0 -2.36833e-017
RightArm  19.4478 0.120214 76.9836
RightForeArm  45.4653 51.0389 10.3649
RightHand  -0.231709 1.3589 -4.12508
LeftUpLeg  -9.57828 -3.72487 -4.87954
LeftLeg  12.2958 14.3441 2.1476
LeftFoot  -1.31404 -0.00368107 -0.159465
LeftToes  -4.22585 1.46665e-006 1.03344e-007
376
root  -6.88416 34.5191 -22.8679 -172.456 71.3398 -178.698
RightUpLeg  -11.0302 -32.3794 -9.10731
RightLeg  12.7382 -0.519139 -0.082132
RightFoot  15.9632 0.0726035 0.0204254
RightToes  -36.6248 -0.191661 -0.290192
Spine  -0.741061 3.52655 -1.97151
Spine1  -1.51048 7.12969 -3.1736
HEad  -32.9447 -25.4135 5.18253
LeftShoulder1  -1.94126e-019 -3.10601e-018 -2.51263e-017
LeftArm  -21.0081 28.4952 -76.1728
LeftForeArm  32.3353 -9.79828 -1.71674
LeftHand  -0.400972 -0.439907 8.08397
RightShoulder  -4.96962e-017 0 -2.36833e-017
RightArm  7.23137 -2.18351 74.778
RightForeArm  44.1674 43.5964 7.71952
RightHand  -0.172796 1.19329 -3.17245
LeftUpLeg  -9.54511 -2.99895 -4.80528
LeftLeg  12.7198 14.853 2.33317
LeftFoot  -1.72622 -0.00668725 -0.282345
LeftToes  -3.90485 1.46665e-006 1.03344e-007
377
root  -6.82066 34.5127 -22.8891 -171.905 72.6659 -177.985
RightUpLeg  -11.0682 -31.4508 -8.88753
RightLeg  12.4784 -0.170922 -0.0258078
RightFoot  16.0996 0.0596795 0.114368
RightToes  -36.6301 -0.191307 -0.290346
Spine  -0.831226 3.09995 -1.91831
Spine1  -1.67648 6.2709 -3.05677
HEad  -32.6384 -24.1133 4.88853
LeftShoulder1  -1.94126e-019 -3.10601e-018 -2.51263e-017
LeftArm  -21.5429 28.7047 -76.46
LeftForeArm  32.7577 -9.67426 -1.69516
LeftHand  -0.403881 -0.392685 8.20446
RightShoulder  -4.96962e-017 0 -2.36833e-017
RightArm  -2.30535 -3.30347 71.9926
RightForeArm  45.3308 35.1802 5.30227
RightHand  -0.0239304 2.86558 -0.556353
LeftUpLeg  -9.52162 -2.35259 -4.71105
LeftLeg  13.3031 15.502 2.59234
LeftFoot  -2.19313 -0.0114161 -0.434869
LeftToes  -3.63921 1.46665e-006 1.03344e-007
378
root  -6.74173 34.5054 -22.912 -171.185 74.2331 -177
RightUpLeg  -11.064 -30.2225 -8.67946
RightLeg  12.2732 0.151591 0.0235655
RightFoot  16.2466 0.0472055 0.203869
RightToes  -36.6608 -0.190852 -0.290427
Spine  -0.888063 2.78558 -1.85607
Spine1  -1.78876 5.64037 -2.92837
HEad  -32.382 -23.0638 4.86685
LeftShoulder1  -1.94126e-019 -3.10601e-018 -2.51263e-017
LeftArm  -21.0151 28.5827 -76.6526
LeftForeArm  32.7841 -9.62506 -1.6864
LeftHand  -0.409087 -0.405801 8.29168
RightShoulder  -4.96962e-017 0 -2.36833e-017
RightArm  -7.62264 -4.21542 68.4475
RightForeArm  50.0811 26.1055 3.07358
RightHand  -0.0606752 0.833632 -1.22174
LeftUpLeg  -9.37774 -1.4245 -4.59305
LeftLeg  13.8993 16.1546 2.86904
LeftFoot  -2.72179 -0.0185358 -0.618676
LeftToes  -3.33476 1.46665e-006 1.03344e-007
379
root  -6.65208 34.5043 -22.9321 -170.296 75.997 -175.791
RightUpLeg  -11.0187 -28.8601 -8.48162
RightLeg  12.036 0.516552 0.0765455
RightFoot  16.3574 0.0331327 0.30214
RightToes  -36.3899 -0.190305 -0.290428
Spine  -0.873604 2.65103 -1.84369
Spine1  -1.77243 5.35712 -2.90363
HEad  -32.7449 -22.6919 5.5928
LeftShoulder1  -1.94126e-019 -3.10601e-018 -2.51263e-017
LeftArm  -19.9234 27.8534 -76.5981
LeftForeArm  32.8722 -9.61275 -1.68408
LeftHand  -0.412326 -0.519087 8.20625
RightShoulder  -4.96962e-017 0 -2.36833e-017
RightArm  -14.2184 -5.38063 64.5698
RightForeArm  61.9111 16.1995 2.60876
RightHand  -0.147353 2.25174 -2.42871
LeftUpLeg  -9.0411 -0.260122 -4.4754
LeftLeg  14.2868 16.7281 3.08284
LeftFoot  -3.21072 -0.0269983 -0.801751
LeftToes  -2.96268 1.46665e-006 1.03344e-007
380
root  -6.56484 34.5045 -22.9535 -169.358 77.7583 -174.578
RightUpLeg  -11.0174 -27.7452 -8.32361
RightLeg  11.7953 1.07775 0.154356
RightFoot  16.4556 0.0109856 0.453752
RightToes  -36.2016 -0.188873 -0.290345
Spine  -0.864734 2.59049 -1.85465
Spine1  -1.77205 5.21614 -2.93298
HEad  -33.6207 -22.6628 6.57735
LeftShoulder1  -1.94126e-019 -3.10601e-018 -2.51263e-017
LeftArm  -19.1922 26.8189 -76.4623
LeftForeArm  33.3208 -9.77703 -1.71239
LeftHand  -0.405111 -0.446016 8.15864
RightShoulder  -4.96962e-017 0 -2.36833e-017
RightArm  -18.4565 -7.19545 60.843
RightForeArm  75.1933 6.77643 1.11538
RightHand  -0.303718 0.604563 -5.9708
LeftUpLeg  -8.65004 0.77636 -4.43399
LeftLeg  14.4968 17.4362 3.27412
LeftFoot  -3.58541 -0.0354555 -0.971212
LeftToes  -2.76316 1.46665e-006 1.03344e-007
381
root  -6.48064 34.4739 -22.9514 -168.154 79.4641 -173.243
RightUpLeg  -11.4454 -26.7522 -8.10568
RightLeg  12.1211 1.63798 0.243647
RightFoot  16.2185 -0.00912463 0.5909
RightToes  -35.9884 -0.187334 -0.290172
Spine  -0.796548 2.52504 -1.78394
Spine1  -1.68772 5.08529 -2.90812
HEad  -35.1877 -22.4333 7.62424
LeftShoulder1  -1.94126e-019 -3.10601e-018 -2.51263e-017
LeftArm  -18.8205 25.6092 -76.2782
LeftForeArm  34.1514 -10.1512 -1.77298
LeftHand  -0.419654 -0.550785 8.30882
RightShoulder  -4.96962e-017 0 -2.36833e-017
RightArm  -20.5878 -10.3861 57.3066
RightForeArm  82.3485 2.08578 0.271043
RightHand  -0.1665 -3.05108 -7.67014
LeftUpLeg  -8.59764 1.74103 -4.39791
LeftLeg  15.1164 18.1142 3.59633
LeftFoot  -4.1577 -0.0508322 -1.23875
LeftToes  -2.57451 1.46665e-006 1.03344e-007
